<svg width="22" height="22" viewBox="0 0 22 22" fill="none" xmlns="http://www.w3.org/2000/svg">
<path d="M1 21H17.9155M10.2267 15.6178L5.61333 16.4482L6.38221 11.7733L16.7314 1.45487C16.8744 1.31074 17.0445 1.19634 17.2319 1.11827C17.4193 1.04019 17.6203 1 17.8233 1C18.0263 1 18.2273 1.04019 18.4147 1.11827C18.602 1.19634 18.7721 1.31074 18.9151 1.45487L20.5451 3.08491C20.6893 3.22787 20.8037 3.39795 20.8817 3.58534C20.9598 3.77273 21 3.97373 21 4.17673C21 4.37974 20.9598 4.58073 20.8817 4.76813C20.8037 4.95552 20.6893 5.1256 20.5451 5.26856L10.2267 15.6178Z" stroke="#27292C" stroke-width="2" stroke-linecap="round" stroke-linejoin="round"/>
</svg>
